# xmcd
#
# Track frame offsets:
#	150
#	16073
#	31650
#	47035
#	59788
#	74933
#	87755
#	100850
#	113310
#	129003
#	140683
#	152890
#	166640
#	181013
#	195298
#	211018
#	224328
#	240170
#	253298
#	266178
#	280948
#	296723
#	311536
#
# Disc length: 4345 seconds
#
# Revision: 1
# Processed by: cddbd v1.5PL3 Copyright (c) Steve Scherf et al.
# Submitted via: audiograbber 1.82.01
#
DISCID=4110f717
DTITLE=Sam Taylor - Best One
DYEAR=1900
DGENRE=
TTITLE0=Harlem Nocturne
TTITLE1=Danny Boy
TTITLE2=Misty
TTITLE3=Red Sails In The Sunset
TTITLE4=Lover Come Back To Me
TTITLE5=Cry Me A River
TTITLE6=Round Midnight
TTITLE7=Star Dust
TTITLE8=Johnny Guitar
TTITLE9=Summertime
TTITLE10=La Playa
TTITLE11=Autumn Leaves
TTITLE12=Moonglow
TTITLE13=All Night Long
TTITLE14=Midnight Sun
TTITLE15=Easy Living
TTITLE16=Little Girl Blue
TTITLE17=Lonely Ville
TTITLE18=Strome Weather
TTITLE19=When I Fall In Love
TTITLE20=Tenderly
TTITLE21=Lover Man
TTITLE22=Unknown
EXTD=
EXTT0=
EXTT1=
EXTT2=
EXTT3=
EXTT4=
EXTT5=
EXTT6=
EXTT7=
EXTT8=
EXTT9=
EXTT10=
EXTT11=
EXTT12=
EXTT13=
EXTT14=
EXTT15=
EXTT16=
EXTT17=
EXTT18=
EXTT19=
EXTT20=
EXTT21=
EXTT22=
PLAYORDER=
